<?xml version="1.0" standalone="no"?>
<!DOCTYPE svg PUBLIC "-//W3C//DTD SVG 20010904//EN"
 "http://www.w3.org/TR/2001/REC-SVG-20010904/DTD/svg10.dtd">
<svg version="1.0" xmlns="http://www.w3.org/2000/svg"
 width="300.000000pt" height="300.000000pt" viewBox="0 0 300.000000 300.000000"
 preserveAspectRatio="xMidYMid meet">
<metadata>
Created by potrace 1.10, written by Peter Selinger 2001-2011
</metadata>
<g transform="translate(0.000000,300.000000) scale(0.100000,-0.100000)"
fill="#000000" stroke="none">
<path d="M516 2975 c-9 -13 -16 -42 -16 -63 0 -21 -2 -41 -5 -44 -3 -3 -89 23
-193 58 -115 39 -191 59 -196 54 -5 -5 -7 -12 -4 -15 3 -3 90 -34 194 -69 162
-54 189 -66 192 -84 2 -12 0 -22 -5 -22 -5 0 -89 27 -188 60 -188 63 -209 68
-203 48 3 -7 87 -40 187 -74 100 -34 184 -64 187 -66 8 -8 -43 -249 -55 -261
-8 -8 -14 -8 -23 1 -7 7 -23 12 -36 12 -24 0 -25 2 -19 53 l5 53 -151 52
c-204 71 -190 67 -185 51 2 -8 20 -19 39 -26 30 -10 33 -15 30 -40 -9 -60 -6
-77 11 -81 15 -3 18 4 18 41 0 24 2 46 5 49 3 2 47 -10 98 -27 88 -31 92 -34
91 -61 0 -16 -4 -37 -8 -46 -6 -13 -2 -19 21 -23 15 -4 48 -13 73 -21 84 -29
88 -29 83 -2 -2 13 3 60 11 103 9 44 25 126 36 183 11 56 24 119 29 140 21 86
22 92 7 92 -7 0 -21 -11 -30 -25z"/>
<path d="M590 2991 c8 -6 23 -11 33 -11 10 0 25 -7 33 -15 16 -16 34 -20 34
-7 -1 20 -19 31 -65 37 -36 5 -46 4 -35 -4z"/>
<path d="M1470 2872 c-18 -67 -36 -124 -39 -127 -4 -2 -16 -41 -26 -85 -15
-64 -22 -80 -34 -77 -9 3 -60 21 -113 40 l-98 35 0 -44 c0 -39 3 -46 26 -54
34 -13 41 -13 26 2 -7 7 -12 20 -12 29 0 15 6 17 38 12 20 -3 45 -10 54 -14 9
-5 28 -9 41 -9 30 0 39 -19 30 -63 -5 -31 -5 -31 13 -15 10 10 18 25 19 35 2
16 37 139 106 377 l21 68 37 -6 c23 -3 44 -1 54 7 15 10 7 12 -47 12 l-64 0
-32 -123z"/>
<path d="M1974 2973 c-3 -10 -13 -35 -24 -55 -10 -21 -15 -38 -10 -38 8 0 33
48 45 88 3 12 4 22 0 22 -3 0 -8 -8 -11 -17z"/>
<path d="M1056 2959 c11 -13 18 -33 17 -45 -3 -17 -9 -20 -31 -16 -15 3 -36
11 -47 18 -11 8 -26 14 -35 14 -20 -1 9 -18 77 -46 59 -24 67 -21 78 37 8 41
5 43 -45 54 l-35 7 21 -23z"/>
<path d="M1667 2952 c-10 -10 -17 -29 -16 -43 1 -22 1 -22 11 6 6 17 16 33 22
37 6 4 8 9 5 13 -3 3 -13 -3 -22 -13z"/>
<path d="M700 2945 c0 -5 75 -45 85 -45 18 0 -1 18 -35 33 -42 18 -50 20 -50
12z"/>
<path d="M40 2881 c0 -21 -6 -32 -20 -36 -11 -3 -20 -12 -20 -20 0 -14 67 -41
77 -31 4 3 -2 6 -11 6 -15 0 -17 8 -14 55 1 30 0 55 -4 55 -5 0 -8 -13 -8 -29z"/>
<path d="M1045 2849 c-4 -6 2 -13 13 -16 19 -5 26 -16 42 -73 l8 -25 1 27 c2
61 -43 122 -64 87z"/>
<path d="M2072 2747 c-18 -6 -47 -23 -64 -39 -18 -16 -44 -36 -60 -44 -25 -13
-85 -91 -79 -104 1 -3 -8 -8 -21 -12 -22 -7 -22 -7 2 -5 14 1 23 4 21 7 -6 9
63 77 86 84 12 4 37 24 56 45 26 28 46 41 76 46 37 6 40 5 34 -11 -5 -13 -3
-16 9 -11 18 6 53 -26 44 -41 -3 -6 -3 -18 0 -27 6 -15 9 -14 20 6 16 29 18
85 4 94 -6 4 -10 3 -9 -2 4 -23 -3 -25 -23 -6 -30 28 -56 33 -96 20z"/>
<path d="M2274 2668 c-36 -37 -54 -63 -46 -66 7 -2 18 1 26 7 9 7 18 7 32 -3
10 -7 32 -16 47 -20 18 -4 27 -12 24 -20 -3 -7 4 -18 14 -24 10 -7 19 -17 19
-23 0 -6 9 -22 20 -36 11 -14 17 -29 14 -34 -3 -5 2 -12 10 -15 9 -3 16 -15
16 -25 0 -12 -5 -16 -15 -13 -10 4 -15 0 -15 -14 0 -11 -5 -22 -12 -24 -18 -6
-14 -160 5 -198 20 -39 10 -38 -32 5 -61 63 -123 80 -191 51 l-33 -13 37 -5
c21 -2 39 -1 42 3 7 12 68 -10 84 -30 32 -42 125 -91 132 -70 2 4 9 5 16 0 11
-6 4 -22 -31 -67 -60 -80 -104 -152 -122 -203 -13 -37 -44 -110 -51 -120 -2
-2 -10 4 -19 13 -28 28 -40 17 -13 -11 27 -30 26 -50 -4 -71 -10 -7 -25 -26
-33 -42 -34 -65 -89 -63 -105 3 -14 58 -50 127 -74 142 -16 10 -33 11 -75 4
-49 -10 -56 -8 -91 16 -26 18 -45 25 -59 20 -13 -4 -21 -2 -21 5 0 6 -5 8 -11
4 -15 -9 29 -44 119 -95 39 -22 72 -45 72 -50 0 -14 -12 -11 -26 9 -7 9 -14
12 -14 5 0 -12 44 -47 87 -70 37 -19 133 -107 133 -121 0 -9 -5 -10 -19 -2
-30 15 -33 12 -11 -10 11 -11 20 -32 20 -47 0 -16 19 -80 41 -143 94 -264 201
-590 215 -653 10 -49 11 -73 4 -87 -12 -23 2 -27 20 -5 8 10 10 32 7 64 -5 45
-3 50 16 54 22 4 22 4 -1 12 -14 5 -21 13 -18 21 3 8 -1 14 -10 14 -11 0 -14
6 -10 16 3 9 6 18 6 20 0 10 57 3 68 -8 9 -9 12 -6 12 13 0 14 9 34 19 43 11
10 25 31 31 47 14 32 25 37 34 14 3 -9 -1 -18 -9 -21 -7 -3 -12 -11 -9 -18 2
-6 -7 -23 -21 -36 -14 -13 -25 -28 -25 -35 0 -6 -14 -19 -30 -29 -17 -9 -27
-22 -24 -28 4 -6 10 -5 15 3 5 8 9 11 9 7 0 -5 11 2 25 14 13 11 22 25 19 30
-3 5 0 7 6 6 14 -4 49 59 60 106 6 27 4 35 -9 39 -9 3 -24 8 -33 12 -13 5 -15
2 -11 -13 3 -14 -2 -21 -17 -25 -12 -3 -19 -10 -16 -15 3 -5 -1 -15 -9 -22 -8
-7 -15 -21 -15 -31 0 -10 -4 -21 -10 -24 -6 -3 -10 -1 -10 4 0 6 -4 11 -10 11
-5 0 -7 -7 -4 -15 4 -9 0 -15 -10 -15 -9 0 -15 3 -15 8 3 19 -2 23 -16 12 -12
-10 -16 -9 -21 4 -4 9 -4 20 0 23 3 3 1 12 -6 20 -6 7 -8 16 -5 19 3 3 -4 15
-16 27 l-22 22 28 3 c24 3 40 22 18 22 -5 0 -12 10 -16 23 -4 13 -8 17 -12 10
-2 -7 -9 -13 -14 -13 -5 0 -4 8 2 18 8 13 3 33 -25 96 -20 43 -36 83 -36 89 0
5 -9 18 -21 28 -14 12 -19 24 -14 38 3 12 2 21 -3 21 -19 0 -34 105 -35 247 0
40 -3 50 -12 43 -9 -7 -16 -5 -25 5 -15 18 -13 20 18 29 14 5 22 3 22 -5 0
-22 9 -4 15 31 4 20 19 46 36 62 16 15 29 37 29 51 0 13 9 41 19 63 10 21 30
65 44 97 14 31 29 57 32 57 3 0 1 -9 -5 -19 -5 -11 -10 -28 -10 -39 0 -11 -9
-31 -20 -44 -17 -22 -17 -28 -5 -44 13 -18 14 -18 23 7 19 49 41 129 35 129
-3 0 8 12 24 28 17 15 38 43 48 62 l17 35 -37 -35 c-21 -19 -34 -28 -30 -20
20 37 102 148 137 185 22 22 48 60 58 84 21 46 27 121 10 121 -5 0 -10 7 -10
16 0 9 -6 14 -13 11 -7 -3 -19 4 -25 14 -11 17 -9 19 10 19 34 1 62 25 55 50
-6 23 8 25 63 10 21 -6 42 -21 52 -37 10 -16 18 -23 18 -17 0 6 -11 28 -25 48
-14 20 -25 46 -25 57 0 16 -2 18 -14 7 -8 -7 -10 -14 -5 -16 16 -6 9 -22 -10
-22 -31 0 -43 23 -25 48 13 20 13 21 -1 16 -8 -3 -15 -12 -15 -20 0 -8 -8 -21
-19 -30 -10 -9 -17 -24 -15 -33 6 -25 -12 -49 -27 -34 -9 9 -17 8 -35 -4 -24
-15 -54 -12 -54 7 0 5 7 10 16 10 9 0 31 12 48 28 17 15 43 35 56 44 l25 18
-30 -12 c-16 -7 -46 -25 -65 -39 -63 -48 -76 -47 -102 8 -13 26 -29 52 -35 56
-7 4 -13 17 -13 28 0 11 -11 24 -25 31 -19 8 -22 14 -13 19 7 5 -4 6 -24 2
-36 -5 -54 9 -25 20 9 4 9 6 0 6 -6 1 -15 -3 -18 -9 -3 -5 -13 -10 -22 -10
-16 0 35 54 73 76 11 6 14 13 7 17 -6 4 -37 -21 -69 -55z m294 -332 l36 -35
-19 -60 c-13 -44 -29 -71 -61 -102 -39 -38 -44 -41 -50 -23 -4 10 -17 30 -29
44 -20 22 -40 100 -25 100 3 0 4 18 2 40 -9 87 75 108 146 36z m-735 -570 c18
-14 22 -26 10 -26 -5 0 -19 9 -33 20 -16 13 -20 20 -10 19 8 0 23 -6 33 -13z
m168 -56 c10 0 19 -7 19 -15 0 -8 5 -15 10 -15 6 0 10 -9 10 -20 0 -10 6 -23
13 -27 14 -9 40 -63 33 -70 -2 -3 -30 14 -62 38 -32 23 -53 44 -46 47 7 2 2
13 -13 30 -25 27 -24 48 2 38 8 -3 23 -6 34 -6z"/>
<path d="M2460 2350 c-21 -13 -10 -18 29 -13 23 4 29 8 20 14 -18 11 -30 11
-49 -1z"/>
<path d="M2498 2262 c-16 -9 -28 -22 -28 -28 0 -18 38 -56 52 -52 8 3 5 9 -10
17 -32 17 -27 28 14 35 26 5 34 11 30 22 -3 9 -6 18 -6 20 0 9 -27 2 -52 -14z"/>
<path d="M848 2670 c3 -32 1 -40 -12 -40 -13 0 -16 -11 -16 -54 0 -29 -3 -68
-7 -86 -4 -22 -3 -31 4 -27 13 8 24 60 23 110 -1 39 -1 39 32 32 18 -4 48 -13
66 -21 28 -11 32 -18 33 -51 1 -37 2 -37 8 -8 3 17 11 28 16 26 6 -2 18 -6 27
-9 9 -2 14 -10 11 -18 -3 -8 1 -14 10 -14 8 0 24 20 36 45 25 53 26 62 6 45
-8 -7 -15 -19 -15 -26 0 -18 -38 -18 -70 1 -14 8 -32 17 -40 21 -8 3 -24 10
-35 14 -11 5 -29 10 -40 12 -16 3 -21 12 -23 46 -2 23 -6 42 -10 42 -4 0 -6
-18 -4 -40z"/>
<path d="M2887 2675 c-34 -13 -94 -49 -107 -65 -3 -3 -21 -14 -41 -23 -20 -9
-39 -24 -43 -32 -7 -20 4 -19 34 5 28 22 80 26 98 8 8 -8 12 -8 12 -1 0 6 -6
13 -14 16 -12 5 -12 11 -3 32 13 27 45 41 77 32 11 -3 18 0 17 6 -3 13 28 21
51 12 14 -5 14 -7 2 -15 -12 -8 -10 -10 8 -10 33 0 27 26 -9 39 -38 13 -34 13
-82 -4z"/>
<path d="M1556 2597 c-14 -47 -26 -92 -26 -101 0 -26 -45 -49 -69 -36 -14 7
-21 7 -21 0 0 -15 -19 -12 -85 15 -33 13 -70 25 -83 25 -12 0 -29 9 -38 19
-16 18 -18 18 -75 -11 -33 -17 -59 -37 -59 -44 0 -8 -7 -14 -16 -14 -25 0 -54
-39 -54 -74 0 -17 -3 -41 -6 -52 -4 -16 0 -23 14 -26 16 -5 21 1 26 25 4 20 2
34 -6 39 -10 6 -10 10 1 17 10 7 22 3 39 -10 14 -11 28 -17 31 -13 3 3 -1 9
-10 14 -33 19 -64 49 -57 56 4 4 14 1 23 -6 12 -10 15 -10 15 4 0 9 10 21 23
26 12 5 35 20 51 35 18 16 36 23 45 19 9 -3 30 -10 46 -14 44 -10 75 -29 72
-43 -1 -9 24 -12 93 -12 52 -1 116 -5 141 -11 45 -11 46 -10 58 18 7 16 10 32
7 35 -3 4 -6 -1 -6 -10 0 -9 -7 -17 -15 -17 -8 0 -12 6 -9 14 7 17 32 28 45
20 5 -3 9 0 9 6 0 6 14 16 30 21 36 13 38 28 6 58 -19 18 -31 21 -55 16 -20
-4 -31 -13 -31 -24 0 -10 -5 -32 -11 -50 -8 -23 -17 -31 -35 -31 -30 0 -30 5
1 109 14 47 23 86 21 89 -2 2 -16 -35 -30 -81z"/>
<path d="M2850 2549 c0 -4 9 -9 20 -12 12 -3 27 -22 35 -44 9 -21 19 -45 24
-53 6 -11 -3 -24 -36 -49 -24 -19 -41 -36 -39 -38 3 -3 21 7 41 23 30 23 38
25 46 13 6 -10 9 -5 9 18 0 17 6 34 13 37 6 3 1 3 -12 0 -16 -4 -21 -3 -16 5
4 7 2 17 -3 24 -6 7 -13 28 -17 48 -6 32 -10 36 -36 35 -16 -1 -29 -4 -29 -7z"/>
<path d="M922 2517 c-7 -16 -12 -36 -12 -45 0 -13 3 -12 16 6 8 12 14 32 11
45 -3 21 -4 21 -15 -6z"/>
<path d="M1714 2497 c-12 -6 -27 -19 -33 -29 -10 -16 -8 -16 24 2 20 11 46 20
58 20 18 0 19 2 7 10 -18 12 -28 11 -56 -3z"/>
<path d="M847 2478 c-3 -13 -10 -37 -15 -55 -9 -26 -8 -31 4 -26 8 3 13 8 10
11 -3 2 1 21 10 40 8 21 11 39 6 44 -6 6 -12 0 -15 -14z"/>
<path d="M0 2452 c0 -12 49 -22 108 -22 27 0 42 4 36 9 -13 13 -144 25 -144
13z"/>
<path d="M734 2399 c-3 -6 -2 -15 4 -21 13 -13 32 -2 32 18 0 16 -26 19 -36 3z"/>
<path d="M1424 2399 c23 -14 94 -20 102 -8 3 5 -12 9 -33 9 -21 0 -49 3 -63 6
-23 5 -23 4 -6 -7z"/>
<path d="M2760 2379 c0 -6 -5 -9 -12 -7 -12 4 -58 -33 -58 -47 0 -5 9 0 19 9
22 20 58 17 53 -4 -2 -7 2 -26 9 -42 10 -25 9 -35 -14 -76 -13 -26 -28 -63
-32 -82 -4 -19 -14 -48 -22 -64 -22 -43 -94 -106 -123 -106 -22 -1 -21 -3 10
-14 29 -10 37 -10 45 2 6 7 31 41 57 75 25 33 49 75 52 92 4 17 21 60 40 95
19 35 32 70 29 78 -5 10 -8 11 -13 1 -5 -7 -11 11 -15 44 -4 32 -11 57 -16 57
-5 0 -9 -5 -9 -11z"/>
<path d="M492 2321 c-7 -4 23 -19 75 -36 121 -39 120 -39 98 -23 -11 8 -36 19
-55 25 -19 6 -51 18 -71 26 -19 9 -41 12 -47 8z"/>
<path d="M732 2281 c-6 -19 -12 -52 -12 -75 0 -62 -7 -68 -67 -52 -28 8 -56
17 -63 21 -11 7 -86 -3 -79 -10 2 -2 46 -10 97 -19 52 -9 106 -22 120 -30 27
-14 27 -14 29 23 2 20 5 52 8 71 4 29 3 31 -5 13 -5 -13 -14 -23 -20 -23 -13
0 -13 26 1 51 5 11 9 30 7 42 -3 19 -5 17 -16 -12z"/>
<path d="M2927 2223 c-10 -20 -15 -38 -12 -41 3 -3 5 0 5 6 0 6 8 12 18 14 13
2 16 10 12 29 l-5 27 -18 -35z"/>
<path d="M1150 2235 c0 -8 -6 -15 -12 -15 -7 0 0 -11 17 -23 46 -34 154 -58
280 -61 44 -1 55 2 53 13 -2 12 -20 15 -80 14 -43 -1 -80 2 -83 7 -3 5 -12 7
-20 4 -8 -4 -38 0 -67 7 -29 7 -57 13 -63 14 -5 0 -10 13 -10 28 1 15 -3 27
-7 27 -4 0 -8 -7 -8 -15z"/>
<path d="M1550 2221 c0 -5 -3 -16 -6 -25 -7 -19 16 -22 34 -4 8 8 9 15 1 25
-13 15 -29 17 -29 4z"/>
<path d="M1016 2205 c-3 -9 -6 -24 -6 -33 0 -8 -7 -23 -16 -33 -15 -16 -14
-19 14 -33 36 -18 50 -56 21 -56 -41 0 -15 -17 69 -44 48 -16 104 -37 126 -48
27 -14 41 -17 49 -9 13 13 57 15 57 2 0 -5 -12 -11 -27 -13 -26 -3 -24 -5 16
-18 40 -13 47 -20 72 -75 34 -71 51 -93 102 -124 l37 -23 0 23 c0 12 9 36 19
53 19 31 19 86 -1 86 -40 0 -78 -63 -58 -99 6 -12 7 -21 2 -21 -18 0 -31 26
-34 69 -2 29 -8 46 -18 48 -12 4 -12 3 -2 -5 8 -6 12 -22 9 -43 -4 -30 -5 -32
-12 -11 -4 12 -11 22 -16 22 -4 0 -11 16 -15 36 -4 19 -13 38 -20 41 -8 3 -14
17 -14 32 0 25 -7 30 -67 51 -115 40 -195 79 -235 115 -21 19 -33 35 -27 35 8
0 8 5 -1 15 -21 25 38 14 92 -18 66 -39 232 -106 236 -95 8 19 -23 39 -89 58
-84 25 -204 82 -234 110 -20 19 -23 19 -29 5z"/>
<path d="M185 2164 c90 -23 310 -64 348 -64 44 0 6 10 -118 30 -72 12 -166 30
-210 41 -113 27 -128 22 -20 -7z"/>
<path d="M1951 2149 c-13 -39 -13 -39 -1 -39 6 0 10 9 10 19 0 11 5 23 10 26
12 8 13 25 1 25 -5 0 -14 -14 -20 -31z"/>
<path d="M2915 2134 c-32 -50 -68 -84 -89 -85 -18 -1 -19 -2 -3 -6 11 -3 29 4
41 16 12 12 26 18 29 14 4 -3 7 1 7 10 0 10 6 17 13 17 19 1 59 38 52 50 -11
18 -32 11 -50 -16z"/>
<path d="M800 2116 c0 -9 -8 -16 -17 -17 -32 -2 71 -22 106 -20 18 1 40 -4 48
-11 11 -9 16 -9 24 3 17 27 13 28 -89 28 -34 0 -51 4 -50 12 2 6 -3 14 -9 16
-7 3 -13 -2 -13 -11z"/>
<path d="M1412 2102 c-18 -14 -21 -23 -16 -50 4 -18 11 -35 17 -39 6 -4 7 7 3
31 -6 30 -4 41 11 51 10 7 16 16 13 18 -3 3 -15 -2 -28 -11z"/>
<path d="M1514 2090 c-6 -20 -7 -56 -2 -84 4 -27 5 -53 2 -57 -3 -5 1 -19 7
-31 l13 -23 6 25 c4 14 4 30 1 35 -3 6 -4 20 -2 33 1 12 -2 22 -8 22 -15 0 -2
60 18 85 15 18 15 19 -1 7 -14 -11 -17 -10 -21 5 -2 12 -7 7 -13 -17z"/>
<path d="M0 2068 c0 -20 11 -30 63 -56 119 -59 139 -66 159 -53 10 6 27 11 38
11 20 0 20 1 4 25 -9 14 -15 27 -13 30 3 2 23 1 47 -2 35 -5 42 -9 42 -28 0
-30 14 -34 75 -24 89 14 223 11 250 -7 13 -9 29 -13 35 -9 17 11 11 33 -11 40
-16 6 -18 9 -8 15 7 5 21 4 32 -2 10 -5 21 -7 24 -4 9 9 -8 26 -27 26 -10 0
-20 6 -23 13 -3 9 -9 7 -24 -6 -11 -9 -23 -14 -27 -10 -6 7 -92 10 -371 13
-16 0 -41 8 -55 17 -17 12 -49 18 -100 19 -41 1 -83 5 -92 9 -14 6 -18 2 -18
-17z m150 -33 c26 -13 60 -55 45 -55 -10 0 -125 60 -125 65 0 11 53 4 80 -10z
m304 -35 c31 0 13 -9 -27 -14 -21 -3 -45 -2 -54 1 -15 6 -14 7 3 14 10 5 28 6
39 4 11 -3 29 -5 39 -5z"/>
<path d="M2187 2055 c-30 -12 -93 -75 -75 -75 6 0 1 -11 -12 -25 -13 -14 -24
-35 -25 -46 -1 -11 -8 -24 -15 -29 -13 -8 -6 -30 11 -30 6 0 7 5 4 10 -3 6 -2
10 3 10 6 0 12 10 16 23 3 13 17 40 31 61 14 20 25 44 25 52 0 8 4 13 9 10 8
-5 67 42 60 48 -2 2 -17 -2 -32 -9z"/>
<path d="M2985 2050 c-3 -5 -18 -10 -33 -11 -15 0 -21 -3 -14 -6 17 -7 5 -23
-18 -23 -10 0 -26 -7 -35 -16 -9 -9 -19 -14 -22 -10 -4 3 -15 -2 -26 -11 -20
-17 -20 -17 -13 1 5 16 4 17 -9 6 -8 -7 -13 -16 -10 -20 3 -5 0 -12 -6 -16 -8
-4 -9 -3 -5 4 9 15 1 15 -25 1 -11 -5 -18 -13 -15 -17 2 -4 -3 -9 -12 -10 -9
-1 -33 -3 -52 -5 -58 -6 -89 -18 -84 -31 4 -12 -15 -32 -85 -88 -11 -10 -21
-23 -21 -29 0 -6 7 -3 16 5 9 9 31 28 50 43 32 24 36 25 51 10 15 -15 15 -18
-4 -34 -11 -10 -23 -35 -26 -57 -3 -21 -13 -46 -21 -55 -13 -15 -14 -20 -2
-36 11 -16 14 -11 27 45 10 48 20 68 41 83 16 12 28 25 28 30 0 12 28 35 60
48 40 17 176 38 201 32 20 -5 22 -3 12 7 -16 17 -182 -3 -261 -31 -63 -23 -61
-23 -58 -4 2 15 26 45 26 32 0 -3 19 0 41 8 23 8 53 15 67 15 14 0 59 20 101
44 42 25 93 52 114 61 20 8 37 22 37 30 0 17 -6 19 -15 5z"/>
<path d="M2183 1972 c-68 -68 -83 -89 -83 -116 0 -22 15 -35 49 -42 15 -3 81
53 81 69 0 6 -8 3 -17 -5 -10 -8 -31 -18 -47 -22 -32 -8 -47 5 -39 35 4 14 8
16 23 7 9 -6 25 -8 34 -5 18 7 21 48 5 64 -9 9 -7 11 9 6 24 -6 68 29 57 46
-11 19 -23 12 -72 -37z"/>
<path d="M1700 2003 c-21 -8 -60 -44 -60 -56 0 -6 10 -1 23 11 12 11 36 28 52
36 28 15 18 21 -15 9z"/>
<path d="M0 1976 c0 -24 102 -86 140 -86 50 0 107 18 114 36 3 8 2 13 -2 10
-4 -2 -27 -1 -52 4 -37 7 -42 6 -28 -4 10 -7 15 -16 11 -19 -15 -15 -51 -5
-86 24 -43 36 -97 55 -97 35z"/>
<path d="M789 1953 c-7 -16 -15 -31 -17 -35 -2 -5 3 -8 12 -8 16 0 46 37 46
57 0 23 -26 14 -41 -14z"/>
<path d="M688 1903 c-14 -16 -69 -84 -123 -153 -54 -69 -116 -145 -137 -170
-36 -41 -38 -45 -22 -57 10 -7 21 -13 25 -13 5 0 61 69 126 154 186 243 193
254 176 260 -8 3 -16 6 -17 6 -1 0 -14 -12 -28 -27z m-18 -69 c0 -10 -72 -94
-81 -94 -11 0 62 99 74 99 4 1 7 -2 7 -5z"/>
<path d="M2530 1909 c0 -6 9 -8 21 -4 20 7 20 5 -6 -29 -15 -20 -32 -36 -37
-36 -5 0 -6 -4 -3 -10 3 -5 18 5 33 23 54 64 54 63 21 65 -16 1 -29 -3 -29 -9z"/>
<path d="M807 1838 l-57 -39 4 -47 c3 -26 5 -56 5 -67 1 -15 17 -29 56 -48 31
-15 61 -27 69 -27 18 0 46 33 46 53 0 16 -49 46 -97 61 -43 14 -23 -10 27 -32
28 -12 50 -28 50 -36 0 -25 -36 -27 -83 -5 -44 21 -45 23 -50 78 -5 51 -3 58
21 78 56 47 69 50 120 23 46 -25 47 -26 50 -78 2 -31 -2 -60 -9 -68 -14 -18
-8 -27 14 -18 22 8 24 21 18 89 l-6 60 -60 32 -60 31 -58 -40z"/>
<path d="M2003 1836 c-3 -5 1 -14 10 -21 9 -7 14 -15 10 -18 -3 -4 -2 -7 3 -7
9 0 26 22 35 45 5 13 -50 14 -58 1z"/>
<path d="M2912 1816 c-13 -31 -8 -46 9 -29 6 6 9 21 7 34 -4 24 -5 23 -16 -5z"/>
<path d="M846 1798 c-36 -50 2 -91 39 -44 20 24 45 35 45 19 -1 -14 -27 -43
-39 -43 -6 0 -11 -4 -11 -10 0 -16 26 -11 43 8 10 10 17 28 17 41 0 34 -28 37
-61 5 -28 -27 -36 -23 -23 10 3 9 12 16 20 16 8 0 14 5 14 10 0 18 -29 10 -44
-12z"/>
<path d="M1609 1798 c9 -26 51 -53 98 -63 28 -6 32 -4 30 14 -1 12 -4 21 -7
22 -3 0 -14 2 -25 3 -38 6 -50 11 -63 29 -20 26 -43 22 -33 -5z"/>
<path d="M283 1774 c-7 -12 -9 -24 -6 -28 7 -6 -12 -10 -37 -6 -12 2 -12 -2 3
-17 21 -24 22 -53 2 -53 -8 0 -15 -4 -15 -10 0 -5 -9 -10 -19 -10 -11 0 -22
-4 -25 -9 -6 -9 79 -9 89 0 2 3 6 19 9 35 2 16 7 36 10 46 4 9 6 29 4 45 -3
27 -4 27 -15 7z"/>
<path d="M1108 1727 c-45 -30 -47 -34 -48 -79 0 -73 11 -91 73 -116 l55 -23
52 37 c50 36 52 39 46 73 -3 20 -6 49 -6 64 0 24 -7 31 -55 53 -31 13 -59 24
-63 24 -4 0 -28 -15 -54 -33z m62 -36 c0 -10 -7 -21 -15 -25 -20 -7 -19 -55 1
-63 22 -8 49 10 49 33 1 11 4 25 8 32 25 39 46 -21 23 -66 -24 -47 -66 -55
-110 -21 -33 26 -35 73 -4 106 26 28 48 30 48 4z"/>
<path d="M2495 1729 c-5 -5 -19 -16 -30 -24 -19 -13 -19 -14 5 -8 24 6 24 4
-9 -30 -36 -38 -38 -58 -4 -36 11 6 28 30 38 53 11 22 21 44 23 49 5 10 -11 8
-23 -4z"/>
<path d="M1605 1710 c-3 -5 0 -10 7 -10 7 0 27 -30 45 -67 47 -102 113 -178
146 -170 17 4 28 -3 49 -34 29 -41 60 -51 76 -23 21 37 -16 92 -42 63 -7 -8
-7 -10 -1 -6 6 3 17 2 24 -2 16 -10 5 -51 -13 -51 -20 0 -46 34 -46 61 0 32
-91 211 -110 217 -13 5 -13 3 -1 -11 11 -14 11 -17 0 -18 -8 0 -4 -5 8 -11 14
-7 29 -30 39 -62 9 -28 23 -60 31 -72 26 -40 -32 -52 -64 -13 -6 8 -32 54 -58
104 -60 116 -73 132 -90 105z"/>
<path d="M2859 1663 c-16 -45 -16 -46 -18 -103 l-1 -45 -73 -35 c-39 -19 -98
-52 -129 -72 -31 -21 -60 -38 -64 -38 -3 0 -27 -15 -53 -34 -25 -18 -77 -50
-116 -71 -77 -42 -145 -93 -145 -108 0 -6 10 -1 23 10 25 24 424 266 505 307
57 29 72 53 72 114 0 21 4 53 10 71 13 48 5 51 -11 4z"/>
<path d="M1540 1661 c0 -13 67 -81 80 -81 5 0 10 6 10 14 0 9 -7 12 -20 9 -14
-4 -20 0 -20 11 0 9 5 16 10 16 6 0 10 5 10 11 0 8 -5 7 -16 -2 -13 -10 -17
-10 -25 2 -5 8 -9 17 -9 22 0 10 -20 9 -20 -2z"/>
<path d="M1870 1610 c16 -28 33 -62 36 -76 9 -36 82 -142 107 -155 17 -9 23
-8 34 7 13 18 12 39 -3 78 -4 11 0 16 12 16 18 1 18 1 -1 12 -11 6 -24 16 -28
22 -5 6 -6 -2 -2 -18 4 -20 1 -32 -12 -42 -17 -13 -17 -13 5 -14 26 0 30 -27
6 -37 -20 -7 -53 32 -54 63 0 12 -7 27 -15 34 -8 7 -15 17 -15 22 0 12 -83
137 -92 137 -4 1 6 -22 22 -49z"/>
<path d="M2505 1639 c-8 -23 -73 -99 -85 -99 -10 0 -1 40 14 60 6 8 -1 5 -15
-8 -18 -16 -25 -30 -22 -46 3 -16 -7 -37 -34 -69 -21 -25 -43 -46 -48 -46 -6
-1 -23 -15 -40 -33 -24 -25 -26 -29 -7 -19 17 9 22 9 22 -1 1 -7 11 0 24 16
22 26 24 27 29 10 4 -17 5 -17 6 2 0 12 15 38 31 59 17 21 30 42 30 47 0 5 10
12 23 17 12 5 44 36 70 70 41 52 45 61 28 61 -11 0 -22 -9 -26 -21z"/>
<path d="M2362 1634 c-19 -13 -49 -54 -39 -54 2 0 20 16 40 35 38 37 37 46 -1
19z"/>
<path d="M260 1585 c-14 -15 -35 -25 -50 -25 -23 0 -27 -3 -23 -24 3 -13 0
-33 -6 -45 -7 -11 -8 -21 -4 -21 5 0 14 -13 20 -30 6 -16 8 -29 5 -28 -4 1
-16 -1 -28 -5 -13 -5 -33 -1 -50 8 -16 8 -35 15 -42 15 -7 0 -11 4 -7 9 3 6
-3 10 -12 9 -10 0 -28 3 -41 5 -14 4 -22 1 -22 -7 0 -7 58 -35 133 -63 72 -28
139 -53 147 -56 10 -5 20 4 32 29 16 35 16 35 -9 45 -13 5 -33 9 -43 9 -11 0
-24 12 -32 30 -7 17 -16 30 -20 30 -21 0 -3 41 38 88 47 53 56 72 14 27z"/>
<path d="M752 1588 c-7 -7 -22 -13 -35 -13 -15 0 -28 -12 -42 -38 l-20 -39 22
-15 c17 -11 21 -21 16 -43 -4 -24 -1 -31 25 -44 39 -20 61 -20 68 -1 4 9 14
13 23 11 20 -7 32 1 54 36 19 31 14 54 -14 63 -16 5 -17 10 -8 28 10 18 8 24
-15 44 -30 26 -56 29 -74 11z m53 -22 c19 -13 19 -15 0 -55 -19 -43 -15 -69 5
-31 9 17 14 19 26 9 17 -14 17 -29 0 -51 -12 -16 -15 -16 -45 3 -30 18 -31 20
-16 41 20 29 19 55 -1 66 -9 5 -14 14 -10 21 9 15 18 14 41 -3z m-35 -42 c0
-3 -7 -19 -16 -36 -16 -30 -15 -33 4 -48 29 -24 14 -47 -19 -30 -13 7 -25 14
-27 15 -2 2 6 22 18 45 20 40 19 74 -1 37 -11 -19 -34 -23 -44 -7 -3 5 2 21
11 34 15 24 17 25 45 10 16 -8 29 -17 29 -20z"/>
<path d="M1465 1573 c-47 -16 -112 -75 -131 -120 -15 -34 -18 -101 -8 -141 14
-50 84 -34 142 32 47 53 61 120 44 207 l-7 36 -40 -14z m11 -38 c-8 -20 -14
-42 -9 -32 9 15 23 -5 23 -31 -1 -41 -35 -108 -66 -129 -22 -14 -28 -15 -32
-4 -3 9 -11 2 -22 -19 l-17 -33 -2 63 c-2 79 24 137 77 173 43 30 57 33 48 12z"/>
<path d="M1603 1500 c0 -36 2 -50 4 -32 2 17 2 47 0 65 -2 17 -4 3 -4 -33z"/>
<path d="M2975 1523 c-30 -60 -36 -75 -25 -68 15 9 52 85 48 97 -2 5 -12 -8
-23 -29z"/>
<path d="M972 1498 c-7 -7 -12 -24 -12 -38 0 -26 -33 -56 -50 -45 -22 14 -8
-19 20 -47 17 -16 30 -40 30 -53 0 -36 25 -51 55 -31 22 15 27 15 48 2 12 -9
32 -13 43 -10 16 4 19 12 16 38 -3 27 1 34 22 44 21 9 25 18 24 47 -1 20 -4
31 -8 25 -13 -22 -40 1 -40 35 0 40 -23 52 -57 30 -21 -14 -26 -14 -45 0 -27
18 -31 18 -46 3z m47 -17 c12 -8 12 -12 2 -25 -24 -29 -60 -13 -47 19 6 17 24
19 45 6z m91 -16 c0 -27 -26 -35 -48 -13 -9 9 -12 9 -12 0 0 -7 -5 -12 -12
-12 -6 0 -1 11 12 25 13 14 32 25 42 25 13 0 18 -7 18 -25z m-10 -47 c0 -5 -5
-6 -12 -2 -8 5 -9 2 -5 -10 11 -28 -10 -56 -43 -56 -32 0 -46 25 -35 60 5 17
14 20 51 18 24 0 44 -5 44 -10z m-125 -29 c0 -28 -23 -32 -39 -6 -8 14 -8 20
4 27 22 14 35 6 35 -21z m171 16 c19 -15 19 -15 0 -30 -11 -8 -23 -15 -27 -15
-11 0 -19 28 -13 45 4 8 9 15 13 15 4 0 16 -7 27 -15z m-122 -82 c7 -16 -8
-33 -30 -33 -14 0 -26 28 -18 41 9 15 41 10 48 -8z m26 5 c0 -9 3 -9 12 0 22
22 48 14 48 -13 0 -18 -5 -25 -18 -25 -10 0 -29 11 -42 25 -13 14 -18 25 -12
25 7 0 12 -5 12 -12z"/>
<path d="M1022 1393 c5 -26 38 -29 38 -4 0 15 -6 21 -21 21 -14 0 -19 -5 -17
-17z"/>
<path d="M2829 1468 c-6 -13 -4 -110 3 -114 4 -3 8 22 8 55 0 50 -4 73 -11 59z"/>
<path d="M2975 1397 c-11 -18 -26 -43 -33 -57 l-13 -25 21 25 c24 29 53 80 48
85 -2 2 -12 -11 -23 -28z"/>
<path d="M1600 1334 c0 -26 2 -45 5 -43 9 9 12 80 4 85 -5 3 -9 -16 -9 -42z"/>
<path d="M2800 1330 c0 -5 6 -10 14 -10 8 0 17 -15 20 -35 4 -19 11 -37 16
-40 6 -4 6 4 0 20 -6 15 -10 37 -10 51 0 17 -5 24 -20 24 -11 0 -20 -4 -20
-10z"/>
<path d="M1518 1255 c-6 -49 -4 -64 8 -53 3 3 4 28 2 54 l-3 49 -7 -50z"/>
<path d="M145 1229 c-66 -33 -124 -65 -130 -71 -9 -9 254 118 264 128 16 14
-30 -5 -134 -57z"/>
<path d="M50 1250 c-30 -16 -51 -29 -45 -29 6 0 35 13 65 29 30 16 51 29 45
29 -5 0 -35 -13 -65 -29z"/>
<path d="M327 1179 c-76 -45 -136 -84 -133 -86 4 -5 96 45 106 57 3 4 34 23
70 43 63 35 110 66 100 66 -3 1 -67 -36 -143 -80z"/>
<path d="M1601 1205 c1 -48 1 -49 9 -15 5 19 4 41 0 50 -6 10 -9 -1 -9 -35z"/>
<path d="M490 1200 c-42 -28 -60 -36 -76 -30 -15 6 -21 4 -21 -5 0 -28 25 -23
83 16 33 21 64 41 69 43 6 2 8 6 5 9 -3 3 -30 -12 -60 -33z"/>
<path d="M237 1209 c-5 -20 -4 -20 20 -4 21 14 27 15 35 4 8 -11 9 -11 5 1 -6
23 -54 22 -60 -1z"/>
<path d="M2787 1171 c-23 -22 -39 -42 -36 -45 3 -3 25 15 49 39 54 55 45 59
-13 6z"/>
<path d="M551 1160 c-30 -21 -67 -44 -83 -51 -15 -6 -28 -15 -28 -19 0 -4 -30
-27 -67 -51 -38 -24 -70 -46 -73 -49 -3 -3 -29 -23 -58 -44 -28 -21 -52 -40
-52 -43 0 -2 19 9 42 26 23 17 47 31 54 31 6 0 23 11 37 24 15 14 88 68 163
120 76 53 133 96 128 96 -5 0 -33 -18 -63 -40z"/>
<path d="M640 1195 c0 -2 33 -14 73 -25 172 -50 486 -165 594 -218 134 -66
687 -343 689 -346 1 0 7 -120 13 -266 13 -302 17 -340 39 -340 13 0 14 13 8
92 -13 168 -14 213 -7 249 5 20 5 43 0 51 -4 8 -9 50 -10 94 -1 106 -22 150
-89 186 -40 22 -50 33 -50 53 0 14 7 28 15 31 17 7 125 -42 125 -57 0 -6 5 -7
11 -3 6 3 14 3 18 -2 8 -11 39 -31 69 -44 12 -5 22 -14 22 -20 0 -5 6 -10 13
-10 6 0 25 -14 40 -30 16 -16 37 -30 48 -30 10 0 19 -7 19 -15 0 -8 8 -15 18
-15 10 0 23 -5 30 -12 17 -17 27 -1 11 18 -17 21 -150 122 -204 156 -117 73
-291 159 -405 201 -52 20 -124 49 -160 65 -56 25 -251 78 -520 142 -41 10
-148 36 -236 59 -169 43 -174 44 -174 36z m735 -210 c11 -2 20 -4 20 -5 0 -1
18 -4 40 -6 53 -7 60 -16 31 -43 -19 -18 -26 -20 -37 -9 -18 17 -102 58 -120
58 -8 0 -21 5 -29 11 -14 10 16 8 95 -6z m162 -51 c13 -4 21 -10 18 -14 -3 -5
4 -6 15 -3 12 3 22 -1 26 -10 3 -9 13 -13 25 -10 10 3 19 1 19 -3 0 -5 13 -10
28 -11 15 -1 49 -11 76 -22 26 -12 55 -21 63 -21 12 0 14 -7 8 -37 -7 -39 -21
-63 -36 -63 -5 0 -7 12 -4 28 l6 27 -15 -25 c-8 -14 -15 -19 -16 -12 0 6 -9
12 -20 12 -11 0 -20 5 -20 10 0 6 -6 10 -13 10 -28 0 -67 26 -67 45 0 15 -3
16 -12 7 -16 -16 -38 -15 -38 1 0 7 -10 14 -22 14 -13 1 -24 7 -26 13 -2 5 -8
8 -13 4 -5 -3 -9 0 -9 5 0 6 -9 11 -20 11 -24 0 -26 13 -4 34 17 18 20 18 51
10z m337 -110 c20 -8 20 -13 0 -81 l-16 -55 -24 23 c-25 23 -25 48 -2 97 12
23 17 26 42 16z"/>
<path d="M2914 1192 c4 -7 2 -12 -3 -12 -6 0 -11 -4 -11 -10 0 -5 8 -10 18
-10 25 0 63 -37 56 -55 -4 -9 0 -15 10 -15 31 0 16 36 -31 75 -26 21 -43 34
-39 27z"/>
<path d="M152 1173 c-6 -2 -9 -10 -5 -16 4 -7 0 -8 -11 -4 -9 4 -15 3 -12 -2
7 -11 -17 -21 -47 -21 -17 0 -19 -2 -8 -9 17 -11 91 22 91 40 0 6 5 7 10 4 6
-3 10 -1 10 4 0 12 -7 13 -28 4z"/>
<path d="M645 1145 c-16 -13 -35 -24 -42 -25 -7 0 -16 -6 -20 -14 -10 -18
-139 -117 -150 -115 -21 3 -31 -3 -42 -27 -8 -19 -17 -25 -31 -21 -11 3 -20 1
-20 -4 0 -27 53 3 189 107 131 100 160 124 149 124 -2 0 -16 -11 -33 -25z"/>
<path d="M706 1103 c-27 -22 -31 -23 -36 -8 -5 15 -7 16 -19 1 -12 -14 -11
-16 5 -16 14 0 4 -14 -36 -51 l-55 -51 52 42 c29 23 56 46 59 51 3 6 15 7 27
4 12 -2 16 -2 9 1 -10 5 -8 12 9 30 29 31 22 30 -15 -3z"/>
<path d="M286 1108 c-9 -5 -16 -18 -16 -29 0 -13 -22 -34 -70 -65 -38 -25 -70
-48 -70 -51 0 -3 10 2 23 10 13 8 64 41 113 73 89 57 128 86 87 65 -26 -13
-36 -14 -29 -3 7 11 -18 11 -38 0z"/>
<path d="M765 1060 c-31 -32 -42 -37 -57 -29 -12 6 -18 6 -18 0 0 -6 -10 -20
-22 -32 l-23 -21 23 11 c12 6 22 16 22 21 0 6 8 10 18 10 12 -1 6 -10 -22 -36
-30 -25 -42 -31 -48 -22 -6 9 -8 8 -6 -4 2 -10 -21 -40 -58 -75 -70 -67 -38
-43 54 40 42 38 68 54 80 51 12 -4 14 -3 4 3 -10 8 2 24 48 66 34 32 57 57 53
57 -5 0 -26 -18 -48 -40z"/>
<path d="M145 1081 c3 -5 -20 -24 -50 -41 -31 -18 -54 -34 -51 -37 3 -3 -5
-14 -17 -25 l-22 -19 28 17 c15 9 25 19 22 22 -3 3 24 23 60 44 36 22 65 41
65 44 0 2 -9 4 -21 4 -11 0 -18 -4 -14 -9z"/>
<path d="M886 1071 c-3 -4 -18 -7 -33 -5 -16 2 -20 1 -10 -2 9 -3 17 -8 17
-12 0 -12 -43 -50 -54 -48 -6 2 -7 1 -3 -2 13 -7 -44 -61 -58 -56 -7 3 -16 1
-20 -5 -4 -7 1 -8 12 -4 14 5 13 1 -6 -20 -13 -15 -28 -24 -34 -20 -6 3 -7 1
-4 -5 4 -5 -25 -40 -64 -76 -39 -36 -67 -66 -61 -66 5 0 72 63 148 140 111
113 142 139 158 134 16 -4 18 -3 6 5 -12 8 -12 13 4 30 11 12 16 21 13 21 -3
0 -8 -4 -11 -9z"/>
<path d="M2815 1067 c-11 -6 -33 -20 -48 -30 -16 -10 -38 -17 -49 -14 -14 4
-18 2 -14 -8 3 -9 -4 -16 -17 -20 -56 -16 -161 -65 -153 -72 3 -3 11 -1 18 4
7 6 31 16 53 23 62 20 202 90 221 111 19 22 17 23 -11 6z"/>
<path d="M859 933 c-169 -188 -191 -213 -186 -213 5 0 267 286 296 323 7 9 11
17 9 17 -2 0 -56 -57 -119 -127z"/>
<path d="M956 918 c-198 -242 -275 -338 -268 -337 4 0 30 28 57 62 28 34 108
133 178 219 70 87 125 158 123 158 -3 0 -43 -46 -90 -102z"/>
<path d="M1045 893 c-43 -60 -103 -141 -132 -180 -29 -40 -51 -73 -48 -73 3 0
56 69 119 154 119 161 151 206 144 206 -2 0 -39 -48 -83 -107z"/>
<path d="M496 963 c-15 -4 -16 -7 -5 -14 11 -7 2 -20 -41 -60 l-55 -51 58 47
c31 26 57 54 57 62 0 8 6 13 13 10 6 -2 23 -7 37 -11 24 -7 24 -6 6 8 -20 16
-35 18 -70 9z"/>
<path d="M1137 873 c-72 -112 -85 -133 -70 -118 9 9 116 168 137 203 4 6 5 12
2 12 -3 0 -34 -44 -69 -97z"/>
<path d="M2742 959 c3 -10 29 -14 101 -16 52 -1 105 -6 116 -12 26 -14 44 -14
39 1 -2 6 -15 13 -29 14 -13 2 -40 6 -59 8 -117 17 -173 19 -168 5z"/>
<path d="M2672 927 c-31 -33 -63 -129 -63 -193 -1 -31 2 -58 5 -61 3 -4 6 16
6 43 0 34 9 69 30 113 17 35 32 71 33 80 1 9 6 22 10 29 13 19 3 14 -21 -11z"/>
<path d="M1238 902 c-40 -24 -39 -76 1 -97 17 -8 37 -12 46 -8 16 5 16 4 1
-26 -9 -17 -14 -31 -12 -31 3 0 12 14 21 30 9 17 12 30 8 30 -4 0 0 6 9 13 19
15 31 47 18 47 -6 0 -10 6 -10 14 0 11 -41 47 -52 46 -2 0 -15 -8 -30 -18z
m58 -10 c6 -4 15 -18 19 -31 10 -33 -28 -64 -61 -49 -31 14 -41 58 -18 75 20
14 43 16 60 5z"/>
<path d="M1248 866 c-3 -15 2 -27 14 -35 21 -13 29 -14 26 -3 0 4 2 15 7 26 5
12 3 21 -6 27 -23 15 -36 10 -41 -15z"/>
<path d="M120 860 c-30 -22 -51 -40 -47 -40 8 0 107 70 107 76 0 7 -3 5 -60
-36z"/>
<path d="M215 819 c-61 -50 -80 -70 -40 -41 37 25 102 81 95 81 -3 0 -27 -18
-55 -40z"/>
<path d="M1385 770 c-33 -79 -40 -89 -54 -78 -14 12 -15 11 -1 -7 8 -11 15
-21 16 -23 0 -1 20 41 43 94 24 53 41 98 38 100 -2 2 -21 -36 -42 -86z"/>
<path d="M570 835 c0 -17 -46 -39 -66 -31 -8 3 -11 0 -7 -10 3 -8 0 -21 -7
-29 -7 -9 -11 -18 -8 -21 3 -2 13 7 22 21 10 15 30 31 46 36 26 10 50 49 29
49 -5 0 -9 -7 -9 -15z"/>
<path d="M332 794 c-30 -24 -50 -44 -45 -44 4 0 31 20 58 45 65 57 56 57 -13
-1z"/>
<path d="M422 749 c-24 -23 -41 -44 -38 -47 3 -3 7 -3 9 -1 1 2 20 23 42 47
50 53 43 54 -13 1z"/>
<path d="M2561 763 c-18 -40 -26 -127 -13 -149 12 -20 12 -20 17 91 1 17 4 42
8 58 4 15 6 27 4 27 -2 0 -9 -12 -16 -27z"/>
<path d="M1172 764 c-34 -23 -30 -69 8 -89 27 -14 32 -14 55 1 15 10 25 26 25
41 l0 24 -26 -20 c-15 -11 -30 -18 -35 -15 -15 9 -10 34 6 34 8 0 15 9 15 20
0 24 -18 26 -48 4z"/>
<path d="M1436 733 c-11 -11 -6 -23 9 -23 12 0 13 -5 4 -26 -5 -15 -8 -29 -5
-31 2 -2 9 10 15 27 8 25 8 35 -3 45 -7 8 -16 11 -20 8z"/>
<path d="M1716 662 c-5 -29 -5 -56 -2 -59 3 -4 6 4 6 16 0 12 4 19 10 16 6 -4
8 -10 5 -15 -3 -4 2 -10 10 -14 10 -4 15 1 15 15 0 11 -4 18 -9 15 -5 -3 -15
2 -22 11 -12 15 -12 16 5 10 14 -6 16 -4 8 5 -5 7 -12 22 -14 33 -2 11 -8 -4
-12 -33z"/>
<path d="M1042 677 c-9 -10 -4 -16 22 -25 32 -12 34 -15 29 -51 -5 -36 -3 -41
26 -55 29 -16 33 -15 56 1 16 12 24 28 25 48 0 28 -6 34 -65 63 -74 36 -78 37
-93 19z m118 -81 c0 -8 -5 -18 -11 -22 -14 -8 -33 11 -25 25 10 16 36 13 36
-3z"/>
<path d="M1388 668 c-16 -5 -28 -15 -28 -22 0 -15 37 -56 51 -56 6 0 8 -4 5
-9 -6 -8 71 -8 80 1 2 3 0 16 -6 29 -10 22 -10 22 -6 2 5 -28 -32 -44 -48 -21
-6 8 -16 13 -22 11 -12 -4 -31 15 -36 36 -2 10 8 17 27 21 17 3 26 8 20 11 -5
4 -22 2 -37 -3z"/>
<path d="M1616 599 c-10 -45 -15 -83 -13 -85 2 -2 12 32 22 77 9 44 15 82 13
85 -3 2 -12 -32 -22 -77z"/>
<path d="M1795 637 c-4 -18 -5 -49 -3 -70 2 -30 6 -35 18 -27 13 9 13 11 1 19
-10 7 -12 22 -8 60 7 57 1 69 -8 18z"/>
<path d="M2430 623 c0 -20 71 -92 102 -102 32 -10 32 -10 11 6 -13 8 -23 22
-23 29 0 8 -6 14 -14 14 -10 0 -12 7 -8 22 4 17 2 20 -13 14 -11 -4 -25 0 -36
10 -11 10 -19 13 -19 7z"/>
<path d="M2811 547 c34 -50 59 -76 59 -61 0 5 -21 32 -46 59 l-46 50 33 -48z"/>
<path d="M812 541 l-32 -38 47 -21 c44 -19 73 -20 73 -2 0 5 -9 6 -20 3 -21
-6 -80 14 -80 26 0 4 14 20 31 37 l30 29 38 -21 c31 -17 39 -18 50 -7 6 7 8
13 4 14 -22 2 -61 8 -83 13 -20 4 -32 -2 -58 -33z"/>
<path d="M1286 544 c-4 -9 -4 -19 -1 -22 3 -3 5 1 5 9 1 10 4 9 15 -4 13 -18
14 -18 25 2 7 14 7 21 0 21 -5 0 -10 -6 -10 -12 -1 -8 -6 -6 -14 5 -13 16 -14
16 -20 1z"/>
<path d="M1346 509 c-10 -27 -16 -53 -12 -56 3 -4 6 0 6 8 0 8 9 31 19 52 10
20 16 39 12 42 -4 2 -16 -19 -25 -46z"/>
<path d="M1677 539 c19 -24 4 -30 -26 -12 l-26 17 22 -22 c12 -12 27 -22 32
-22 5 0 12 -10 14 -22 2 -13 4 -6 4 15 0 22 -7 42 -16 50 -14 10 -14 10 -4 -4z"/>
<path d="M2898 503 c11 -16 30 -37 43 -48 l24 -20 -17 21 c-10 11 -18 25 -18
30 0 10 -36 44 -46 44 -3 0 3 -12 14 -27z"/>
<path d="M430 505 c0 -17 -16 -20 -25 -5 -3 6 -11 10 -17 10 -7 0 -6 -6 2 -15
15 -18 42 -19 58 -3 16 16 15 28 -3 28 -8 0 -15 -7 -15 -15z"/>
<path d="M1044 502 c-30 -23 -22 -73 13 -89 22 -11 30 -9 53 7 34 24 31 72 -6
89 -32 14 -35 14 -60 -7z m56 -37 c0 -19 -20 -29 -32 -17 -15 15 -2 43 17 36
8 -3 15 -12 15 -19z"/>
<path d="M2470 464 c-47 -13 -93 -22 -102 -20 -9 2 -19 -2 -22 -10 -3 -8 -12
-14 -21 -14 -8 0 -15 -5 -15 -10 0 -13 49 -7 58 7 4 6 23 13 42 16 53 8 142
35 153 46 15 15 6 13 -93 -15z"/>
<path d="M982 374 c-14 -10 -22 -25 -22 -44 0 -24 7 -33 40 -50 40 -20 40 -20
40 -1 0 11 -9 25 -20 31 -34 18 -25 40 16 37 48 -3 54 15 11 31 -41 15 -38 15
-65 -4z"/>
<path d="M1885 368 c-4 -10 -11 -15 -16 -12 -5 3 -9 0 -9 -6 0 -6 8 -10 18 -8
9 1 24 -2 32 -7 12 -7 13 -6 4 6 -6 8 -14 21 -16 29 -5 13 -7 12 -13 -2z"/>
<path d="M2353 350 c-13 -19 -8 -30 14 -30 14 0 18 36 5 44 -4 2 -13 -4 -19
-14z"/>
<path d="M1867 323 c-12 -12 -7 -41 8 -47 8 -3 15 -1 15 4 0 6 -5 10 -12 10
-9 0 -9 3 0 12 7 7 12 16 12 20 0 10 -14 11 -23 1z"/>
<path d="M2218 323 c18 -7 15 -31 -5 -35 -15 -3 -14 -5 5 -10 15 -4 22 -2 22
8 0 8 5 14 11 14 5 0 7 -4 4 -10 -3 -5 3 -10 14 -10 26 0 28 19 4 26 -10 3
-26 10 -35 15 -10 5 -21 9 -25 8 -5 0 -2 -3 5 -6z"/>
<path d="M2765 318 c-22 -5 -44 -14 -50 -19 -7 -8 -4 -10 10 -6 48 13 86 17
178 19 53 1 97 6 97 10 0 11 -181 8 -235 -4z"/>
<path d="M1190 284 c-19 -12 -41 -23 -47 -23 -7 -1 -13 -5 -13 -11 0 -11 23
-3 64 21 22 13 35 15 54 8 14 -5 27 -8 29 -5 3 2 -6 7 -19 11 -13 4 -25 11
-28 15 -3 4 -21 -3 -40 -16z"/>
<path d="M2845 280 c-32 -3 -45 -8 -37 -13 7 -5 29 -6 47 -3 19 4 59 7 90 7
30 1 55 4 55 9 0 8 -76 8 -155 0z"/>
<path d="M1580 251 c0 -6 3 -11 8 -11 4 0 18 -9 32 -20 21 -17 23 -21 10 -30
-13 -8 -13 -10 1 -10 22 0 32 67 11 75 -22 8 -25 6 -12 -10 20 -25 5 -27 -23
-4 -15 11 -27 16 -27 10z"/>
<path d="M1890 239 c0 -6 -9 -8 -20 -4 -26 8 -26 -1 0 -15 16 -8 24 -8 35 4
13 12 13 15 0 20 -8 3 -15 1 -15 -5z"/>
<path d="M1310 205 c0 -18 -64 -46 -88 -39 -15 5 -15 4 1 -6 25 -16 109 22
101 45 -8 19 -14 19 -14 0z"/>
<path d="M2207 184 c-46 -36 -98 -107 -96 -135 0 -8 5 -3 12 11 12 27 98 117
137 143 14 10 19 17 10 17 -8 0 -36 -17 -63 -36z"/>
<path d="M90 140 c0 -6 7 -10 17 -10 14 0 14 -2 -2 -20 -26 -29 -13 -35 13 -7
l22 24 -25 11 c-15 7 -25 8 -25 2z"/>
<path d="M2441 84 c-50 -26 -96 -53 -103 -62 -7 -9 19 2 57 23 39 21 87 47
108 57 32 16 46 28 33 28 -3 0 -45 -21 -95 -46z"/>
<path d="M2626 59 c14 -28 28 -48 31 -45 6 5 -44 96 -53 96 -2 0 7 -23 22 -51z"/>
</g>
</svg>
